<?xml version="1.0" encoding="utf-8"?>
<!-- Generator: Adobe Illustrator 26.3.1, SVG Export Plug-In . SVG Version: 6.00 Build 0)  -->
<svg version="1.1" id="Layer_1" xmlns="http://www.w3.org/2000/svg" xmlns:xlink="http://www.w3.org/1999/xlink" x="0px" y="0px"
	 viewBox="0 0 587 274.3" style="enable-background:new 0 0 587 274.3;" xml:space="preserve">
<style type="text/css">
	.st0{fill:#002C73;}
	.st1{fill:#00BED5;}
</style>
<g id="a">
</g>
<g id="b">
	<g id="c">
		<g>
			<path class="st0" d="M571.3,30.2c-5.2-0.3-10.1-1-14.3-4.5c-5.2-4.4-6.5-8.3-8.2-13.1s-8-11.3-18.8-9.6
				c-8.7,1.4-14.2,6.7-19.1,23.2c-0.9,2.9-2.8,12.2-4.7,18.6c-10.4,35-22.4,59-35.6,72.8c-10.9,10.4-24.5,16.2-41,12.2
				c-49.8-12.1-18.4-103.4-15.4-113.3c3-9.9,2.2-14.6-2.6-16.1c-5.5-1.8-9.9,3.5-12.8,8.7c-2.9,5.2-14.3,29.5-18.7,62.2
				s2.5,86.4,52.2,93.4c50,7,78.7-39.8,87.5-59.4c8.8-19.6,19.7-49.8,16.8-52.6c-6.3-8.8-3.4-14.7-3.4-14.5
				c6.8,14.1,22.2,18.2,32.5,18.7c12.2,0.7,19.7-4.3,20-12.5C586.2,35.5,576.5,30.6,571.3,30.2L571.3,30.2z"/>
			<path class="st1" d="M355.1,139.1c-0.2-0.1-0.4-0.3-0.6-0.4c-2.4-0.9-4.4-2.7-5.4-5.1c-1.1-2.6-4-12.8,6.5-35.4
				c7.5-16.2,14.8-34.8,7.1-51.1c-4.1-8.7-10.6-14.1-19.9-16.5c-10.5-2.7-22.1,0.8-34.7,10.5c-8.3,6.4-16.7,15.5-24.1,25.8
				c1.9-10,2.8-24.4-5.9-31.3c-4.1-3.3-10.2-2.9-13.5,0.8c-3,3.4-2.8,8.5,0.5,11.9c1.2,2.2,3.4,9.2-1.9,26.9
				c-0.6,1.9-1.4,4.5-2.3,7.1c-0.9,2.8-1.9,5.7-2.6,7.9c-5.4,16-16.5,25.7-25.6,32.4c-11.5,8.4-24.9,12.6-35.8,11.1
				c-5.9-0.8-11.4-3.6-15.6-7.9c14.1-6.8,31.4-15.8,43.7-26.8c15.7-14.1,21.9-29,18.2-44.3c-2.3-9.9-9.1-17.5-19.1-21.5
				c-9.4-3.7-20.9-3.3-30.9,1.1c-17.4,7.7-31.6,26.5-37.1,48.9c-2.8,11.3-2.6,23.2,0.4,34.5c-5.2,2.5-23.1,10.4-30,13.5
				c0.9-3.8,1.9-7.8,3-12.1c1.9-7.9,3.9-16,6.1-24.5c8.8-33.4,14.8-42.3,16.3-44.1c3-1.4,4.9-4.4,4.9-7.7c0-5-4.3-9.2-9.6-9.5
				c-5.7-0.3-11.1,4.7-16.4,15.4c-3.3-7-10.4-12-16.2-14.6c-13.7-5.9-30-4.7-45.9,3.4c-15.4,8-28.2,20-37.2,34.8
				c-11.5,19.2-14.6,38.4-8.9,54c3.6,9.9,10.5,17.1,20,21.1c10.4,4.4,21,4.3,33.2-0.1c9.3-3.4,22.2-11.1,31.8-21.2l-1.2,4.6
				c-1,3.6-1.9,7.3-2.6,9.9c-27.7,12.4-56.8,26.7-81.2,51.3C5.7,209-2.8,230.9,0.8,247.7c2.3,10.7,8.8,19,18.3,23.2
				c5.1,2.2,10.7,3.4,16.3,3.4c7.1-0.1,14-1.6,20.5-4.4c13.4-5.5,26.4-17.4,37.5-34.4c6.8-10.4,12.8-23.8,17.3-38.7
				c3.3-11.1,7.1-26,11.2-44.3l0.3-1.2c1.7-0.7,5.8-2.5,10.9-4.6c6.4-2.7,14.4-6.1,20.7-8.8c5.8-2.5,8.7-3.7,10.2-4.4l0.4,0.4
				c7.4,9.9,18,16,30.7,17.8c14.6,2,31.6-3.1,45.5-13.6c2.3-1.8,4.5-3.8,6.5-5.8l-0.3,0.6c-0.9,2.3-1.8,4.6-2.4,6.4
				c-1.4,4.5,1.3,9.4,6.1,11.3c4.7,1.8,10.9-0.7,12.7-5.2c1.3-3.6,2.4-7.2,3.2-10.9c2.7-10.5,6.5-25,16.4-39.4
				C310.7,54.7,331,45,340,49c12.2,7.1,1.2,33.4-2.4,41.3c-9.5,20.5-11.7,37.5-6.5,49.4c3,7.1,8.8,12.6,16,15.4
				c0.5,0.2,1.1,0.3,1.7,0.3c5.1,0.4,9.5-3.5,9.9-8.6C358.8,143.9,357.5,140.9,355.1,139.1L355.1,139.1L355.1,139.1z M202.4,50.9
				c2.8-1.3,5.8-2,8.8-2.1l0,0c2.1,0,4.1,0.4,6.1,1.2c3.9,1.6,6.3,4.3,7.2,8c0.6,2.8,0.5,5.7-0.2,8.4c-1.6,6.4-6,13.4-12.7,19.4
				c-9.5,8.6-21.1,15.8-37.2,23.5c-0.9-7.2-0.4-14.5,1.3-21.5l0,0c2.3-9.6,6.7-18.5,13-26C192.7,57,197.4,53.2,202.4,50.9
				L202.4,50.9L202.4,50.9z M117.7,83.9c-11.4,24.6-33,41-49.3,46.4c-7,2.3-13.1,2.7-17.4,1.1c-0.3-0.1-0.6-0.2-0.9-0.3
				c-4.3-1.9-7.7-5.5-9.3-9.9c-3.6-9.8-0.6-24.1,8.4-39.1c11.7-19.6,31.5-33.3,48.1-33.3h1.4c3,0.1,6,0.8,8.8,1.9
				c1.7,0.7,3.2,1.7,4.6,3c3.4,3,7.1,8.5,7.1,18.2C119.2,75.9,118.7,79.9,117.7,83.9L117.7,83.9z M98.7,161.4l0,0.2
				c-1.3,6-3.5,16.1-7.9,30c-4.3,13.6-8.7,23.8-13.8,32.2c-8.9,14.8-19.8,25.5-30.5,30.1c-7,3-13.5,3.3-19.4,0.8
				c-3.9-1.9-6.7-5.5-7.5-9.8c-2.3-10.6,4.4-26.8,16.8-40.2C54.1,185.5,79.6,170.7,98.7,161.4L98.7,161.4z"/>
			<g transform="translate(353.84 572.72)">
				<g>
					<path class="st0" d="M-215-381c-3.9,0-6.3-2.3-6.3-5.6s2.4-5.6,6.3-5.6h42c3.9,0,6.3,2.3,6.3,5.6s-2.4,5.6-6.3,5.6h-14.2
						c-0.4,0-0.6,0.2-0.6,0.6v53.6c0,4-2.6,6.5-6.2,6.5s-6.2-2.5-6.2-6.5v-53.6c0-0.4-0.2-0.6-0.6-0.6H-215L-215-381z"/>
					<path class="st0" d="M-116-324.1l-12.9-25.5h-13.3c-0.4,0-0.6,0.2-0.6,0.6v22.2c0,4-2.5,6.5-6.2,6.5s-6.2-2.5-6.2-6.5v-59.8
						c0-3.4,2.1-5.6,5.6-5.6h23.1c13.1,0,22.8,8.7,22.8,21.3c0,9-5,16-12.7,19.2l11.6,21.7c0.6,1.1,0.9,2.5,0.9,3.8
						c0,3.2-2.3,5.9-6,5.9C-112.5-320.2-114.6-321.4-116-324.1L-116-324.1z M-116.1-370.8c0-6.2-4.4-10.2-10.9-10.2h-15.2
						c-0.4,0-0.6,0.2-0.6,0.6v19c0,0.4,0.2,0.6,0.6,0.6h15.2C-120.5-360.7-116.1-364.7-116.1-370.8L-116.1-370.8z"/>
					<path class="st0" d="M-92.6-328.3l20.8-57.3c1.6-4.4,3.9-7,8.2-7s6.7,2.6,8.3,7l20.6,57.3c0.2,0.6,0.4,1.5,0.4,2.3
						c0,3.6-2.8,5.8-6,5.8c-2.7,0-4.9-1.6-5.9-4.3l-3.9-11.1h-27.3l-3.8,11.1c-0.9,2.7-3.1,4.3-5.9,4.3c-3.1,0-6-2.2-6-5.8
						C-93-326.8-92.8-327.7-92.6-328.3z M-53.9-346.7l-9.6-27.8h-0.3l-9.6,27.8H-53.9L-53.9-346.7z"/>
					<path class="st0" d="M-21.4-386.1c0-4,2.6-6.5,6.2-6.5s6.2,2.5,6.2,6.5v59.4c0,4-2.6,6.5-6.2,6.5s-6.2-2.5-6.2-6.5V-386.1z"/>
					<path class="st0" d="M8.8-385.2c0-4.6,2.7-7.4,7-7.4c3.6,0,5.9,2.1,8.2,6.1l26.2,44.5h0.3v-44.5c0-3.9,2.4-6.1,5.8-6.1
						s5.7,2.2,5.7,6.1v58.9c0,4.6-2.7,7.4-6.9,7.4c-3.7,0-6-2.1-8.3-6.1l-26.1-44.5h-0.4v44.5c0,3.9-2.4,6.1-5.7,6.1
						s-5.8-2.2-5.8-6.1L8.8-385.2L8.8-385.2z"/>
					<path class="st0" d="M79.9-386.1c0-4,2.6-6.5,6.2-6.5s6.2,2.5,6.2,6.5v59.4c0,4-2.6,6.5-6.2,6.5s-6.2-2.5-6.2-6.5V-386.1z"/>
					<path class="st0" d="M110.1-385.2c0-4.6,2.7-7.4,7-7.4c3.6,0,5.9,2.1,8.2,6.1l26.2,44.5h0.3v-44.5c0-3.9,2.4-6.1,5.8-6.1
						s5.7,2.2,5.7,6.1v58.9c0,4.6-2.7,7.4-6.9,7.4c-3.7,0-6-2.1-8.3-6.1l-26.1-44.5h-0.4v44.5c0,3.9-2.4,6.1-5.7,6.1
						s-5.8-2.2-5.8-6.1L110.1-385.2L110.1-385.2z"/>
					<path class="st0" d="M179-356.4c0-10.4,0.4-14.6,2-19.7c3.7-11.2,12.8-17.1,25.3-17.1c11.1,0,19.2,4.7,22.8,11.4
						c0.6,1.1,1,2.3,1,3.7c0,3.2-2.5,5.6-5.7,5.6c-2.1,0-3.8-0.8-5.5-3.1c-2.9-4.4-7-6.4-12.7-6.4c-7.2,0-11.4,3.6-13.3,9.4
						c-0.9,3-1.4,6.7-1.4,16.3s0.4,13.2,1.4,16.3c1.9,5.9,6.2,9.4,13.4,9.4c6.6,0,11.5-3.2,13.4-9c0.8-2.5,1.2-6,1.2-9.1
						c0-0.4-0.2-0.6-0.6-0.6h-8.2c-3.4,0-5.5-2.2-5.5-5.2c0-3,2.1-5.2,5.5-5.2h16c3.2,0,5,1.9,5,5v2c0,5.8-0.5,11.8-1.9,15.8
						c-3.7,11.3-12.7,17.5-25.1,17.5s-21.6-5.9-25.3-17.1C179.4-341.8,179-346,179-356.4L179-356.4z"/>
				</g>
			</g>
		</g>
	</g>
</g>
</svg>
