<?xml version="1.0" encoding="UTF-8"?>
<svg width="130px" height="70px" viewBox="0 0 130 70" version="1.1" xmlns="http://www.w3.org/2000/svg" xmlns:xlink="http://www.w3.org/1999/xlink">
    <title>GenU Training Logo</title>
    <defs>
        <polygon id="path-1" points="1.50404754e-05 0.139877092 121.934869 0.139877092 121.934869 69.8582996 1.50404754e-05 69.8582996"></polygon>
    </defs>
    <g id="Symbols" stroke="none" stroke-width="1" fill="none" fill-rule="evenodd">
        <g id="Header/Desktop" transform="translate(-82.000000, -25.000000)">
            <g id="Header">
                <g id="GenU-Training-Logo" transform="translate(82.000000, 25.000000)">
                    <g id="Group-22">
                        <path d="M126.779187,20.5751255 C125.651204,20.5056923 124.585119,20.3469879 123.667364,19.5832227 C122.525282,18.6281619 122.257386,17.7765425 121.885152,16.7152065 C121.512777,15.6538704 120.138048,14.2397004 117.796215,14.6095385 C115.901204,14.9085263 114.711041,16.0733036 113.629588,19.682413 C113.442061,20.3058947 113.024707,22.3548826 112.612993,23.7534656 C110.357028,31.4137895 107.737289,36.6482024 104.858113,39.6720891 C102.48103,41.9562996 99.5354447,43.2145992 95.9456399,42.3346397 C85.1100976,39.6807328 91.9428525,19.7376761 92.6013124,17.5654089 C93.2597722,15.3931417 93.0735141,14.3828178 92.0302711,14.0441538 C90.8303796,13.6544777 89.8758243,14.802251 89.2512039,15.9500243 C88.6264425,17.0977976 86.1492516,22.3959757 85.1848265,29.5532632 C84.2202603,36.7106923 85.7402169,48.4477368 96.5478416,49.9680405 C107.430054,51.4984049 113.672028,41.2605506 115.582549,36.9827571 C117.493069,32.7046802 119.864653,26.0858543 119.248492,25.4850445 C117.868124,23.559336 118.509664,22.2627773 118.512484,22.3265425 C119.994371,25.4028583 123.344479,26.2941538 125.593395,26.4103482 C128.235553,26.5520486 129.885228,25.4737085 129.950087,23.6854494 C130.023547,21.7257328 127.904208,20.6445587 126.779187,20.5751255" id="Fill-1" fill="#08216C"></path>
                        <g id="Group-5" transform="translate(0.000000, 0.001842)">
                            <mask id="mask-2" fill="white">
                                <use xlink:href="#path-1"></use>
                            </mask>
                            <g id="Clip-4"></g>
                            <path d="M99.7738438,6.05328543 C99.4918482,7.5510587 98.0917397,8.64498583 96.642282,8.49903441 C95.5042885,8.39219231 94.6020434,7.48842713 94.4920651,6.34518826 L94.4920651,6.33526923 C94.3214577,4.87008704 95.0645163,3.5253502 95.993551,2.62980364 C97.0356659,1.62514777 98.1918482,1.41684818 98.5315119,1.61947976 C98.7572495,1.76118016 98.5683124,2.053083 98.2341475,2.51219231 C98.0127809,2.81684818 98.134039,3.09458097 98.4005249,3.27312348 C98.4806117,3.30784008 98.5588655,3.34723279 98.6345813,3.39073482 C99.500308,3.89660526 99.9839306,4.92818421 99.7738438,6.05328543 L99.7738438,6.05328543 Z M121.862564,6.42170648 C121.472,8.51037045 119.51636,10.0379008 117.491631,9.83385223 C115.903855,9.6856336 114.644744,8.4249251 114.491197,6.82980364 C114.482738,6.76037045 114.478508,6.68810324 114.474278,6.61867004 C114.323269,4.65186842 115.330134,2.85510729 116.589245,1.64640283 C118.042933,0.24498583 119.655948,-0.0455 120.125471,0.23790081 C120.439896,0.426362348 120.17623,0.842961538 119.709527,1.48344737 C119.402152,1.90854858 119.568529,2.29397368 119.939354,2.5433664 C120.052857,2.59281984 120.163399,2.6486498 120.270698,2.71057287 C121.484549,3.41340688 122.160069,4.853083 121.866653,6.42312348 L121.862564,6.42170648 Z M21.4721085,45.1796012 L21.4636486,45.2221113 C21.1816529,46.5399251 20.7036703,48.7462004 19.747705,51.7800061 C18.8142993,54.7443785 17.862564,56.9846619 16.7515011,58.8308765 C14.807141,62.0646215 12.4552972,64.3984271 10.124603,65.401666 C8.60746638,66.0563219 7.18761822,66.11867 5.901718,65.5858765 C5.05319306,65.1691356 4.45014534,64.3746215 4.27460304,63.4419494 C3.77406074,61.1223138 5.2390282,57.5868887 7.92080694,54.6437713 C11.7559479,50.4480223 17.3056226,47.215836 21.4721085,45.1796012 L21.4721085,45.1796012 Z M25.6118048,28.2379008 C23.127423,33.6125972 18.4406551,37.2075364 14.8959696,38.3864838 C13.377423,38.8909372 12.0421735,38.9787915 11.101718,38.6385688 C11.036859,38.6160385 10.97482,38.5905324 10.9156009,38.5636093 C9.96894143,38.1562206 9.23490672,37.3696417 8.89087202,36.3941761 C8.09846421,34.24033 8.75974403,31.1243381 10.7083341,27.8439737 C13.2547549,23.5575364 17.5580087,20.5648239 21.176013,20.5648239 L21.4721085,20.5648239 C22.1281714,20.5900466 22.7745054,20.7340142 23.3798091,20.9899251 C23.7461215,21.1514636 24.0845163,21.3705324 24.3823037,21.638913 C25.1239523,22.3006538 25.922,23.5036903 25.9332798,25.6249453 C25.9277809,26.5054717 25.8199176,27.3824555 25.6118048,28.2379008 L25.6118048,28.2379008 Z M44.0204816,21.0381032 C44.6184534,20.7518684 45.2702863,20.5972733 45.9324121,20.5846557 C46.3845922,20.5838117 46.8325423,20.6703907 47.2521518,20.8397227 C48.0981388,21.1798036 48.6226508,21.7721113 48.8158178,22.5982247 C48.9420108,23.2075364 48.9269241,23.8378198 48.7721085,24.44033 C48.4351236,25.847415 47.4622386,27.3777794 46.0113709,28.6842571 C43.9358829,30.5532854 41.4275315,32.144581 37.9180954,33.8152287 C37.7273254,32.2447632 37.8229219,30.6524757 38.2000911,29.1164433 C38.6938655,27.027496 39.6587137,25.0805324 41.0200477,23.4257551 C41.9182039,22.351666 42.9404382,21.5213016 44.0190716,21.0324352 L44.0204816,21.0381032 Z M77.2452104,40.3092166 C77.206154,40.2767672 77.1631497,40.2497024 77.1169024,40.2285891 C76.5915445,40.0329008 76.169115,39.6293381 75.9480304,39.1119899 C75.7026941,38.5451883 75.0766638,36.3247429 77.3580087,31.3808158 C78.9837137,27.8510587 80.5783991,23.7842571 78.9089848,20.2119899 C78.0178785,18.3132045 76.6063492,17.1328401 74.5902213,16.6042976 C72.3115553,16.0063219 69.7709154,16.7814231 67.0411974,18.9055121 C65.2350152,20.3111802 63.4048633,22.2836498 61.7918482,24.5480223 C62.2148416,22.361585 62.4051887,19.205917 60.5129978,17.6996417 C59.6134317,16.9826377 58.2979219,17.0619899 57.580243,17.8753502 C56.926013,18.6178603 56.9739523,19.7330425 57.6859913,20.4840547 C57.9552972,20.970087 58.4346898,22.4976174 57.2629978,26.3532854 C57.1346898,26.7783866 56.9528026,27.3281842 56.7596356,27.9119899 C56.5580087,28.5198846 56.3507419,29.1490344 56.1956443,29.6393178 C55.0267722,33.1293988 52.6044295,35.2534879 50.62482,36.713002 C48.1263384,38.5551073 45.2175531,39.4605729 42.8459696,39.1318279 C41.5595054,38.9491761 40.3694837,38.3431235 39.4620217,37.408751 C42.5329544,35.9293988 46.2975965,33.9512611 48.9652755,31.5551073 C52.3872928,28.4844595 53.7183124,25.2253502 52.9329544,21.8727186 C52.4267722,19.7117874 50.9589848,18.0468077 48.7847983,17.1796012 C46.7445597,16.3662409 44.2291584,16.4583462 42.0577918,17.4275769 C38.2649501,19.1194798 35.1728677,23.2188725 33.9870759,28.1259575 C33.3862842,30.6040142 33.4173037,33.1944393 34.0773145,35.657334 C32.9352321,36.2014636 29.0606117,37.9401275 27.5434751,38.6132045 C27.7507419,37.7800061 27.9664685,36.8972126 28.1892451,35.9733259 C28.6122386,34.253083 29.0352321,32.4733259 29.5216746,30.6227186 C31.4378351,23.3138117 32.7364252,21.3725162 33.0593102,20.9771721 C33.7138221,20.6749251 34.1338547,20.0177186 34.1351236,19.2937713 C34.1351236,18.2069291 33.203128,17.2717065 32.0568156,17.2079413 C30.8146247,17.1385081 29.6429328,18.2423543 28.4782907,20.5747429 C27.7493319,19.0443785 26.2223254,17.9419494 24.9434751,17.3893178 C21.959961,16.1040951 18.4152755,16.3648239 14.9622386,18.1247429 C11.619039,19.8632652 8.81769414,22.4947834 6.86614317,25.7298036 C4.36625163,29.9383057 3.68100217,34.1312206 4.93588286,37.5376984 C5.72829067,39.6899858 7.23132755,41.2841154 9.28425597,42.1486296 C11.554321,43.1051073 13.8469458,43.0951883 16.499115,42.1174555 C18.5323037,41.3678603 21.3254707,39.6915445 23.4192885,37.4909372 L23.1499826,38.5069291 C22.9413059,39.2947834 22.7269892,40.1081437 22.5859913,40.6650263 C16.5555141,43.3814231 10.2331714,46.494581 4.91473319,51.8735283 C1.24878959,55.587496 -0.613791757,60.3684676 0.181436009,64.0597632 C0.6890282,66.4105729 2.10464642,68.208751 4.16885466,69.1241356 C5.28767245,69.6156943 6.49672885,69.8656538 7.71777007,69.8583081 C9.25506941,69.8366053 10.7733341,69.51367 12.1874013,68.907334 C15.1116963,67.7014636 17.9344729,65.1026781 20.3497657,61.3972126 C21.830243,59.121504 23.130243,56.1939737 24.1059479,52.9334474 C24.8306768,50.5132045 25.6569241,47.2512611 26.5494403,43.2411397 L26.6058395,42.9860789 C26.9823037,42.8245405 27.87482,42.4447834 28.974603,41.9800061 C30.3761215,41.3862814 32.1005249,40.6551073 33.4766638,40.0670506 C34.7315445,39.5298644 35.3674447,39.2579413 35.6931497,39.0978198 L35.7735184,39.1970101 C37.3837137,41.3551073 39.6946681,42.6984271 42.4568156,43.0810182 C45.6250369,43.5188725 49.3262299,42.4036903 52.3590933,40.0982247 C52.8559696,39.7034474 53.3291584,39.2794798 53.7761215,38.8285891 L53.7197223,38.9702895 C53.5237354,39.4662409 53.3206985,39.9777794 53.1952104,40.3773745 C52.8864252,41.3593583 53.4687462,42.4419494 54.51918,42.8429615 C55.5414143,43.2326377 56.8794837,42.6842571 57.2728677,41.7093583 C57.5559913,40.9300061 57.7913167,40.1340749 57.9778568,39.3259575 C58.5714577,37.0233259 59.3878351,33.8690749 61.5366421,30.7176579 C67.5798091,21.8656336 72.0029111,19.7472126 73.9613709,20.6229211 C76.622,22.1660385 74.2292668,27.9318279 73.4312191,29.6634069 C71.3698308,34.1368887 70.8777484,37.8706943 72.008551,40.4623947 C72.6712408,42.011747 73.9264035,43.2281032 75.4911974,43.8376984 C75.6117505,43.8789332 75.7375206,43.9028806 75.8648416,43.9085486 C76.9733666,43.9862004 77.9345488,43.1457753 78.0116746,42.0318684 C78.0580629,41.3621923 77.7708503,40.7132045 77.2452104,40.2994393 L77.2452104,40.3092166 Z" id="Fill-3" fill="#26CAD3" mask="url(#mask-2)"></path>
                        </g>
                        <path d="M31.6733297,50.8091316 C31.3081453,50.8091316 31.0811388,50.590913 31.0811388,50.2834231 C31.0811388,49.9759332 31.3081453,49.7575729 31.6733297,49.7575729 L35.621692,49.7575729 C35.9868764,49.7575729 36.2140239,49.9759332 36.2140239,50.2834231 C36.2140239,50.590913 35.9868764,50.8091316 35.621692,50.8091316 L34.2891215,50.8091316 C34.2496421,50.8091316 34.2299024,50.8291113 34.2299024,50.8687874 L34.2299024,55.937836 C34.2299024,56.3147591 33.9831562,56.5528158 33.6474403,56.5528158 C33.3118655,56.5528158 33.0651193,56.3147591 33.0651193,55.937836 L33.0651193,50.8687874 C33.0651193,50.8291113 33.0453796,50.8091316 33.0059002,50.8091316 L31.6733297,50.8091316 Z" id="Fill-6" fill="#08216C"></path>
                        <path d="M40.9808503,51.7714332 C40.9808503,51.1862105 40.5663167,50.8091457 39.9542451,50.8091457 L38.5229761,50.8091457 C38.4834967,50.8091457 38.463757,50.8291255 38.463757,50.8688016 L38.463757,52.6642874 C38.463757,52.7039636 38.4834967,52.7238016 38.5229761,52.7238016 L39.9542451,52.7238016 C40.5663167,52.7238016 40.9808503,52.3468785 40.9808503,51.7714332 M40.9907202,56.1858259 L39.7765879,53.7753603 L38.5229761,53.7753603 C38.4834967,53.7753603 38.463757,53.7950567 38.463757,53.8348745 L38.463757,55.9378502 C38.463757,56.3147733 38.2268807,56.55283 37.881436,56.55283 C37.5457202,56.55283 37.298974,56.3147733 37.298974,55.9378502 L37.298974,50.2834372 C37.298974,49.9660283 37.4965119,49.757587 37.8222169,49.757587 L39.9938655,49.757587 C41.2275965,49.757587 42.1357636,50.5811498 42.1357636,51.7714332 C42.1357636,52.6246113 41.6620108,53.2794089 40.9413709,53.5868988 L42.0370651,55.6402794 C42.0962842,55.7493887 42.1258937,55.878336 42.1258937,55.9973644 C42.1258937,56.3048543 41.908757,56.55283 41.5631714,56.55283 C41.3164252,56.55283 41.1190282,56.4438623 40.9907202,56.1858259" id="Fill-8" fill="#08216C"></path>
                        <path d="M46.8335716,54.0530223 L45.9254046,51.4241964 L45.895795,51.4241964 L44.987769,54.0530223 L46.8335716,54.0530223 Z M43.1911746,55.7889939 L45.1456866,50.3726377 C45.2937343,49.9560385 45.5108709,49.7080628 45.9155347,49.7080628 C46.3201985,49.7080628 46.547346,49.9560385 46.6953937,50.3726377 L48.6300249,55.7889939 C48.6497646,55.8486498 48.6695043,55.9278603 48.6695043,56.0073543 C48.6695043,56.3446012 48.4030184,56.5529008 48.106923,56.5529008 C47.8501659,56.5529008 47.6428991,56.4041154 47.5540705,56.1460789 L47.1888861,55.0946619 L44.6224436,55.0946619 L44.2671291,56.1460789 C44.1783004,56.4041154 43.9710336,56.5529008 43.7142766,56.5529008 C43.4181811,56.5529008 43.1516952,56.3446012 43.1516952,56.0073543 C43.1516952,55.9278603 43.1714349,55.8486498 43.1911746,55.7889939 L43.1911746,55.7889939 Z" id="Fill-10" fill="#08216C"></path>
                        <path d="M49.8927592,50.3231417 C49.8927592,49.9462186 50.1395054,49.7080202 50.4750803,49.7080202 C50.8107961,49.7080202 51.0575423,49.9462186 51.0575423,50.3231417 L51.0575423,55.9378785 C51.0575423,56.3148016 50.8107961,56.5528583 50.4750803,56.5528583 C50.1395054,56.5528583 49.8927592,56.3148016 49.8927592,55.9378785 L49.8927592,50.3231417 Z" id="Fill-12" fill="#08216C"></path>
                        <path d="M52.7351627,50.4123988 C52.7351627,49.9759615 52.9917787,49.7080061 53.3964425,49.7080061 C53.7321584,49.7080061 53.949295,49.9065283 54.1664317,50.2834514 L56.6341757,54.4894028 L56.6637852,54.4894028 L56.6637852,50.2834514 C56.6637852,49.9164474 56.8907918,49.7080061 57.2066269,49.7080061 C57.5127332,49.7080061 57.7397397,49.9164474 57.7397397,50.2834514 L57.7397397,55.8485931 C57.7397397,56.2850304 57.4829826,56.5528441 57.0883297,56.5528441 C56.742744,56.5528441 56.5256074,56.3546053 56.3084707,55.9775405 L53.8505965,51.7714474 L53.8111171,51.7714474 L53.8111171,55.9775405 C53.8111171,56.3445445 53.5841106,56.5528441 53.2781453,56.5528441 C52.9621692,56.5528441 52.7351627,56.3445445 52.7351627,55.9775405 L52.7351627,50.4123988 Z" id="Fill-14" fill="#08216C"></path>
                        <path d="M59.4170076,50.3231417 C59.4170076,49.9462186 59.6637538,49.7080202 59.9993286,49.7080202 C60.3350445,49.7080202 60.5817907,49.9462186 60.5817907,50.3231417 L60.5817907,55.9378785 C60.5817907,56.3148016 60.3350445,56.5528583 59.9993286,56.5528583 C59.6637538,56.5528583 59.4170076,56.3148016 59.4170076,55.9378785 L59.4170076,50.3231417 Z" id="Fill-16" fill="#08216C"></path>
                        <path d="M62.259397,50.4123988 C62.259397,49.9759615 62.516013,49.7080061 62.9206768,49.7080061 C63.2563926,49.7080061 63.4735293,49.9065283 63.6906659,50.2834514 L66.15841,54.4894028 L66.1880195,54.4894028 L66.1880195,50.2834514 C66.1880195,49.9164474 66.415026,49.7080061 66.7308612,49.7080061 C67.0369675,49.7080061 67.263974,49.9164474 67.263974,50.2834514 L67.263974,55.8485931 C67.263974,56.2850304 67.0072169,56.5528441 66.612564,56.5528441 C66.2669783,56.5528441 66.0498416,56.3546053 65.832705,55.9775405 L63.3748308,51.7714474 L63.3353514,51.7714474 L63.3353514,55.9775405 C63.3353514,56.3445445 63.1083449,56.5528441 62.8023796,56.5528441 C62.4864035,56.5528441 62.259397,56.3445445 62.259397,55.9775405 L62.259397,50.4123988 Z" id="Fill-18" fill="#08216C"></path>
                        <path d="M68.744,53.1304534 C68.744,52.1483279 68.7833384,51.7517085 68.9315271,51.2655344 C69.2769718,50.2040567 70.1356486,49.6485911 71.3103015,49.6485911 C72.3566464,49.6485911 73.1167657,50.0949474 73.4523406,50.7299069 C73.5115597,50.8388745 73.551039,50.9481255 73.551039,51.0770729 C73.551039,51.3845628 73.3141627,51.6027814 73.0179262,51.6027814 C72.8205293,51.6027814 72.6626117,51.5234291 72.5046941,51.3052105 C72.2283384,50.8886113 71.8432733,50.7001498 71.3103015,50.7001498 C70.629282,50.7001498 70.2343471,51.0373968 70.0568308,51.5928623 C69.9680022,51.8806559 69.9283818,52.2278219 69.9283818,53.1304534 C69.9283818,54.0332267 69.9680022,54.3803927 70.0568308,54.6681862 C70.2343471,55.2235101 70.6391518,55.5608988 71.3201714,55.5608988 C71.9421128,55.5608988 72.4061367,55.2532672 72.5836529,54.7078623 C72.6626117,54.469664 72.6923623,54.142336 72.6923623,53.8447652 C72.6923623,53.8050891 72.6724816,53.785251 72.6330022,53.785251 L71.863154,53.785251 C71.5473189,53.785251 71.3497809,53.5768097 71.3497809,53.2891579 C71.3497809,53.0015061 71.5473189,52.7932065 71.863154,52.7932065 L73.3733818,52.7932065 C73.6696182,52.7932065 73.8471345,52.971749 73.8471345,53.2693198 L73.8471345,53.4579231 C73.8471345,54.0034696 73.7979262,54.5688543 73.6696182,54.9558381 C73.3240325,56.0270931 72.4750846,56.6124575 71.3103015,56.6124575 C70.1356486,56.6124575 69.2769718,56.0568502 68.9315271,54.9955142 C68.7833384,54.5093401 68.744,54.1125789 68.744,53.1304534" id="Fill-20" fill="#08216C"></path>
                    </g>
                </g>
            </g>
        </g>
    </g>
</svg>