<?xml version="1.0" encoding="UTF-8"?>
<svg width="111px" height="60px" viewBox="0 0 111 60" version="1.1" xmlns="http://www.w3.org/2000/svg" xmlns:xlink="http://www.w3.org/1999/xlink">
    <title>GenU Training Logo Copy</title>
    <defs>
        <polygon id="path-1" points="1.28422521e-05 0.119894651 104.113619 0.119894651 104.113619 59.8785425 1.28422521e-05 59.8785425"></polygon>
    </defs>
    <g id="Symbols" stroke="none" stroke-width="1" fill="none" fill-rule="evenodd">
        <g id="Footer/Desktop" transform="translate(-950.000000, -122.000000)">
            <g id="GenU-Training-Logo-Rev" transform="translate(950.000000, 122.000000)">
                <g id="Group-22">
                    <path d="M108.249921,17.6358219 C107.286797,17.5763077 106.376525,17.4402753 105.592903,16.7856194 C104.617741,15.966996 104.388999,15.2370364 104.071168,14.3273198 C103.753217,13.4176032 102.57941,12.2054575 100.579845,12.5224615 C98.9617972,12.7787368 97.9455813,13.7771174 97.0221866,16.8706397 C96.8620672,17.4050526 96.5057115,19.1613279 96.1541714,20.3601134 C94.2279241,26.9261053 91.9910694,31.4127449 89.5326963,34.0046478 C87.5030336,35.9625425 84.9879566,37.041085 81.9228156,36.286834 C72.6709295,34.0120567 78.505051,16.9180081 79.0672744,15.0560648 C79.6294978,13.1941215 79.470462,12.3281296 78.5796931,12.0378462 C77.5551703,11.7038381 76.7401269,12.6876437 76.2067972,13.6714494 C75.6733471,14.6552551 73.5582072,19.1965506 72.7347364,25.3313684 C71.9111453,31.4663077 73.2089544,41.5266316 82.4370033,42.829749 C91.7287386,44.1414899 97.0584241,35.3661862 98.6897148,31.6995061 C100.321005,28.032583 102.345973,22.3593036 101.819867,21.8443239 C100.641244,20.1937166 101.189021,19.0823806 101.191428,19.1370364 C102.456732,21.7738785 105.317209,22.5378462 107.237437,22.6374413 C109.493434,22.7588988 110.902002,21.8346073 110.957382,20.3018138 C111.020105,18.6220567 109.210516,17.695336 108.249921,17.6358219" id="Fill-1" fill="#FFFFFF"></path>
                    <g id="Group-5" transform="translate(0.000000, 0.001579)">
                        <mask id="mask-2" fill="white">
                            <use xlink:href="#path-1"></use>
                        </mask>
                        <g id="Clip-4"></g>
                        <path d="M85.1915128,5.18853036 C84.9507319,6.47233603 83.7552547,7.40998785 82.5176408,7.28488664 C81.5459694,7.19330769 80.7755909,6.41865182 80.6816863,5.43873279 L80.6816863,5.43023077 C80.5360139,4.17436032 81.1704716,3.02172874 81.9637243,2.25411741 C82.8535302,1.39298381 83.8407319,1.2144413 84.1307525,1.38812551 C84.3234976,1.509583 84.1621744,1.75978543 83.876849,2.15330769 C83.687836,2.4144413 83.7913718,2.65249798 84.0189098,2.80553441 C84.0872915,2.8352915 84.1541082,2.86905668 84.2187579,2.90634413 C84.9579553,3.33994737 85.3708946,4.22415789 85.1915128,5.18853036 L85.1915128,5.18853036 Z M104.051882,5.50431984 C103.7184,7.29460324 102.048584,8.60391498 100.319777,8.42901619 C98.9640605,8.30197166 97.8889738,7.22136437 97.7578685,5.85411741 C97.7506451,5.79460324 97.7470334,5.73265992 97.7434217,5.67314575 C97.6144835,3.98731579 98.4741918,2.44723482 99.5492785,1.41120243 C100.790504,0.209987854 102.167771,-0.039 102.568671,0.20391498 C102.837142,0.365453441 102.612012,0.722538462 102.213519,1.27152632 C101.951068,1.63589879 102.093129,1.96626316 102.409756,2.18002834 C102.50667,2.222417 102.601056,2.27027126 102.692673,2.32334818 C103.729115,2.92577733 104.305905,4.15978543 104.055373,5.50553441 L104.051882,5.50431984 Z M18.3338772,38.7253725 L18.3266538,38.7618097 C18.0858729,39.8913644 17.6777492,41.7824575 16.861502,44.3828623 C16.0645171,46.923753 15.2518816,48.843996 14.3032048,50.4264656 C12.6430204,53.198247 10.6349076,55.1986518 8.64485336,56.0585709 C7.34945206,56.6197045 6.13712017,56.6731457 5.03915922,56.2164656 C4.31464946,55.8592591 3.79973948,55.178247 3.64985336,54.3788138 C3.22246725,52.3905547 4.47332408,49.3601903 6.76315054,46.8375182 C10.0377709,43.2411619 14.7763393,40.4707166 18.3338772,38.7253725 L18.3338772,38.7253725 Z M21.868541,24.203915 C19.7472612,28.8107976 15.7454824,31.8921741 12.7188664,32.9027004 C11.4222612,33.3350891 10.2821636,33.4103927 9.47915922,33.1187733 C9.42377961,33.0994615 9.37080781,33.0775992 9.32024382,33.0545223 C8.5119423,32.705332 7.88518959,32.0311215 7.59143688,31.1950081 C6.91484252,29.3488543 7.47947375,26.678004 9.14326985,23.8662632 C11.3175215,20.1921741 14.9918382,17.6269919 18.0810573,17.6269919 L18.3338772,17.6269919 C18.894054,17.6486113 19.4459239,17.7720121 19.9627601,17.9913644 C20.2755345,18.1298259 20.5644716,18.3175992 20.8187362,18.5476397 C21.45199,19.1148462 22.1334,20.1460202 22.1430312,21.9642389 C22.138336,22.7189757 22.0462373,23.4706761 21.868541,24.203915 L21.868541,24.203915 Z M37.5867189,18.0326599 C38.0972948,17.7873158 38.6538599,17.6548057 39.2192134,17.6439906 C39.6053056,17.6432672 39.9877861,17.7174777 40.3460681,17.8626194 C41.0684108,18.1541174 41.5162633,18.6618097 41.6811983,19.3699069 C41.7889477,19.8921741 41.7760659,20.432417 41.6438772,20.9488543 C41.356144,22.1549271 40.5254499,23.466668 39.2866321,24.5865061 C37.5144846,26.1885304 35.3727384,27.552498 32.37622,28.9844818 C32.2133317,27.6383684 32.2949564,26.2735506 32.6170009,24.9569514 C33.0386082,23.1664251 33.8624401,21.4975992 35.02481,20.0792186 C35.7916972,19.1585709 36.664528,18.44683 37.585515,18.0278016 L37.5867189,18.0326599 Z M65.9555258,34.5507571 C65.9221777,34.5229433 65.8854586,34.4997449 65.8459705,34.4816478 C65.3973957,34.313915 65.0367059,33.968004 64.8479336,33.5245628 C64.6384542,33.0387328 64.1039206,31.1354939 66.0518382,26.8978421 C67.4399401,23.872336 68.8015562,20.3865061 67.3761332,17.3245628 C66.6152655,15.6970324 65.4100367,14.6852915 63.6885735,14.2322551 C61.7429434,13.7197045 59.5736278,14.3840769 57.2428685,16.2047247 C55.7006668,17.409583 54.1379987,19.1002713 52.7607319,21.0411619 C53.1219033,19.1670729 53.2844304,16.4622146 51.6687905,15.1711215 C50.9006993,14.5565466 49.7774564,14.6245628 49.164669,15.3217287 C48.6060573,15.958166 48.64699,16.9140364 49.2549618,17.5577611 C49.4849076,17.9743603 49.8942351,19.2836721 48.8937905,22.5885304 C48.7842351,22.9529028 48.6289315,23.4241579 48.4639965,23.9245628 C48.2918382,24.4456154 48.1148642,24.9848866 47.9824347,25.4051296 C46.9843978,28.3966275 44.9160898,30.2172753 43.2258078,31.4682874 C41.0924889,33.0472348 38.6088338,33.8233482 36.5838664,33.5415668 C35.4854239,33.3850081 34.4693284,32.8655344 33.6944954,32.0646437 C36.3165996,30.7966275 39.5310247,29.101081 41.8088121,27.0472348 C44.7306885,24.415251 45.8671744,21.6217287 45.1965996,18.7480445 C44.7643978,16.8958178 43.5111332,15.4686923 41.6547124,14.7253725 C39.9126625,14.0282065 37.7648967,14.1071538 35.9108837,14.9379231 C32.6723805,16.3881255 30.0322178,19.9018907 29.0197341,24.1079636 C28.5067503,26.2320121 28.5332362,28.4523765 29.0967839,30.5634291 C28.1216213,31.0298259 24.8132915,32.5201093 23.5178902,33.0970324 C23.6948642,32.3828623 23.8790616,31.6261822 24.0692785,30.8342794 C24.4304499,29.3597854 24.7916213,27.8342794 25.2069683,26.2480445 C26.8430746,19.9832672 27.9518707,18.3192996 28.2275649,17.9804332 C28.7864174,17.7213644 29.1450605,17.1580445 29.146144,16.5375182 C29.146144,15.6059393 28.3503631,14.8043198 27.3715887,14.749664 C26.3109488,14.6901498 25.3105041,15.6363036 24.316079,17.6354939 C23.6936603,16.323753 22.3898317,15.3788138 21.2978902,14.9051296 C18.7504282,13.8035101 15.7238121,14.0269919 12.7754499,15.5354939 C9.9208718,17.0256559 7.52895423,19.2812429 5.86262993,22.0541174 C3.72810716,25.6614049 3.14300954,29.255332 4.2144846,32.17517 C4.89107896,34.0199879 6.17444121,35.3863846 7.92732625,36.1273968 C9.86561258,36.9472348 11.8231614,36.9387328 14.0877059,36.1006761 C15.8237362,35.458166 18.2086711,34.0213239 19.9964694,32.1350891 L19.7665236,33.0059393 C19.5883458,33.6812429 19.4053523,34.3784089 19.2849618,34.8557368 C14.135862,37.1840769 8.73755401,39.852498 4.19642603,44.4630243 C1.06627419,47.6464251 -0.524083731,51.7444008 0.154918438,54.9083684 C0.588324078,56.9233482 1.79704425,58.4646437 3.55956052,59.2492591 C4.51485879,59.6705951 5.54720694,59.8848462 6.58978829,59.8785498 C7.90240542,59.8599474 9.19876985,59.5831457 10.4061657,59.0634291 C12.9030638,58.0298259 15.3132807,55.8022955 17.3755692,52.6261822 C18.639669,50.6755749 19.749669,48.1662632 20.5827709,45.3715263 C21.2015779,43.2970324 21.9070659,40.501081 22.6691375,37.063834 L22.7172937,36.8452105 C23.0387362,36.706749 23.8008078,36.3812429 24.7398534,35.9828623 C25.9365345,35.4739555 27.4089098,34.8472348 28.5839206,34.3431862 C29.6553957,33.8827409 30.1983566,33.649664 30.4764586,33.512417 L30.5450811,33.5974372 C31.9199401,35.4472348 33.8931397,36.5986518 36.2515887,36.926587 C38.9567623,37.3018907 42.1170117,36.3460202 44.7066104,34.3699069 C45.1308664,34.0315263 45.5348967,33.6681255 45.9165345,33.2816478 L45.8683783,33.4031053 C45.7010356,33.8282065 45.5276733,34.266668 45.4205258,34.6091781 C45.1568707,35.4508785 45.6540833,36.3788138 46.5509922,36.7225385 C47.423823,37.0565466 48.5663284,36.5865061 48.9022178,35.7508785 C49.1439618,35.0828623 49.3448935,34.4006356 49.5041701,33.7079636 C50.0110139,31.7342794 50.7080746,29.0306356 52.5428252,26.3294211 C57.7027601,18.7419717 61.4794087,16.9261822 63.1516321,17.6767895 C65.4234,18.9994615 63.380374,23.9415668 62.698964,25.4257773 C60.9388555,29.2601903 60.5186928,32.4605951 61.4842243,34.6820526 C62.0500594,36.0100688 63.1217753,37.0526599 64.4578685,37.57517 C64.5608024,37.6105142 64.6681907,37.6310405 64.7769033,37.6358988 C65.723413,37.7024575 66.5441148,36.9820931 66.6099683,36.0273158 C66.6495768,35.4533077 66.4043414,34.8970324 65.9555258,34.5423765 L65.9555258,34.5507571 Z" id="Fill-3" fill="#FFFFFF" mask="url(#mask-2)"></path>
                    </g>
                    <path d="M27.0441508,43.5506842 C26.7323395,43.5506842 26.5385108,43.3636397 26.5385108,43.1000769 C26.5385108,42.8365142 26.7323395,42.6493482 27.0441508,42.6493482 L30.4154447,42.6493482 C30.727256,42.6493482 30.921205,42.8365142 30.921205,43.1000769 C30.921205,43.3636397 30.727256,43.5506842 30.4154447,43.5506842 L29.2776345,43.5506842 C29.2439252,43.5506842 29.2270705,43.5678097 29.2270705,43.6018178 L29.2270705,47.9467166 C29.2270705,48.2697935 29.0163872,48.4738421 28.7297375,48.4738421 C28.4432082,48.4738421 28.2325249,48.2697935 28.2325249,47.9467166 L28.2325249,43.6018178 C28.2325249,43.5678097 28.2156703,43.5506842 28.181961,43.5506842 L27.0441508,43.5506842 Z" id="Fill-6" fill="#FFFFFF"></path>
                    <path d="M34.9913414,44.3755142 C34.9913414,43.8738947 34.6373935,43.5506964 34.1147785,43.5506964 L32.892695,43.5506964 C32.8589857,43.5506964 32.842131,43.5678219 32.842131,43.60183 L32.842131,45.1408178 C32.842131,45.1748259 32.8589857,45.19183 32.892695,45.19183 L34.1147785,45.19183 C34.6373935,45.19183 34.9913414,44.868753 34.9913414,44.3755142 M34.9997688,48.1592794 L33.9630866,46.093166 L32.892695,46.093166 C32.8589857,46.093166 32.842131,46.1100486 32.842131,46.1441781 L32.842131,47.9467287 C32.842131,48.2698057 32.6398751,48.4738543 32.3449184,48.4738543 C32.0582688,48.4738543 31.8475855,48.2698057 31.8475855,47.9467287 L31.8475855,43.1000891 C31.8475855,42.8280243 32.0162525,42.6493603 32.2943544,42.6493603 L34.1486082,42.6493603 C35.2020247,42.6493603 35.9774597,43.3552713 35.9774597,44.3755142 C35.9774597,45.1068097 35.5729477,45.6680648 34.9576321,45.9316275 L35.8931863,47.691668 C35.9437503,47.7851903 35.9690323,47.8957166 35.9690323,47.9977409 C35.9690323,48.2613036 35.783631,48.4738543 35.488554,48.4738543 C35.2778707,48.4738543 35.1093241,48.3804534 34.9997688,48.1592794" id="Fill-8" fill="#FFFFFF"></path>
                    <path d="M39.988665,46.3311619 L39.21323,44.0778826 L39.187948,44.0778826 L38.4126335,46.3311619 L39.988665,46.3311619 Z M36.8786183,47.8191377 L38.5474708,43.1765466 C38.6738808,42.8194615 38.8592821,42.6069109 39.2048027,42.6069109 C39.5503233,42.6069109 39.7442723,42.8194615 39.8706823,43.1765466 L41.5225598,47.8191377 C41.5394144,47.8702713 41.5562691,47.938166 41.5562691,48.0063036 C41.5562691,48.2953725 41.3287311,48.473915 41.0759112,48.473915 C40.8566802,48.473915 40.6797062,48.3463846 40.6038602,48.1252105 L40.2920489,47.223996 L38.1007018,47.223996 L37.7973179,48.1252105 C37.7214719,48.3463846 37.5444979,48.473915 37.3252669,48.473915 C37.072447,48.473915 36.844909,48.2953725 36.844909,48.0063036 C36.844909,47.938166 36.8617637,47.8702713 36.8786183,47.8191377 L36.8786183,47.8191377 Z" id="Fill-10" fill="#FFFFFF"></path>
                    <path d="M42.6007406,43.1341215 C42.6007406,42.8110445 42.8114239,42.6068745 43.0979531,42.6068745 C43.3846028,42.6068745 43.5952861,42.8110445 43.5952861,43.1341215 L43.5952861,47.946753 C43.5952861,48.26983 43.3846028,48.4738785 43.0979531,48.4738785 C42.8114239,48.4738785 42.6007406,48.26983 42.6007406,47.946753 L42.6007406,43.1341215 Z" id="Fill-12" fill="#FFFFFF"></path>
                    <path d="M45.0277158,43.2106275 C45.0277158,42.8365385 45.2468265,42.6068623 45.5923471,42.6068623 C45.8789967,42.6068623 46.064398,42.7770243 46.2497993,43.1001012 L48.3568731,46.7052024 L48.3821551,46.7052024 L48.3821551,43.1001012 C48.3821551,42.7855263 48.5759837,42.6068623 48.8456584,42.6068623 C49.107026,42.6068623 49.3008547,42.7855263 49.3008547,43.1001012 L49.3008547,47.8702227 C49.3008547,48.2443117 49.0816236,48.4738664 48.7446508,48.4738664 C48.4495738,48.4738664 48.2641725,48.3039474 48.0787711,47.980749 L45.9801247,44.3755263 L45.9464154,44.3755263 L45.9464154,47.980749 C45.9464154,48.2953239 45.7525868,48.4738664 45.4913395,48.4738664 C45.2215445,48.4738664 45.0277158,48.2953239 45.0277158,47.980749 L45.0277158,43.2106275 Z" id="Fill-14" fill="#FFFFFF"></path>
                    <path d="M50.7329834,43.1341215 C50.7329834,42.8110445 50.9436667,42.6068745 51.230196,42.6068745 C51.5168457,42.6068745 51.727529,42.8110445 51.727529,43.1341215 L51.727529,47.946753 C51.727529,48.26983 51.5168457,48.4738785 51.230196,48.4738785 C50.9436667,48.4738785 50.7329834,48.26983 50.7329834,47.946753 L50.7329834,43.1341215 Z" id="Fill-16" fill="#FFFFFF"></path>
                    <path d="M53.1599466,43.2106275 C53.1599466,42.8365385 53.3790573,42.6068623 53.7245779,42.6068623 C54.0112275,42.6068623 54.1966289,42.7770243 54.3820302,43.1001012 L56.4891039,46.7052024 L56.5143859,46.7052024 L56.5143859,43.1001012 C56.5143859,42.7855263 56.7082145,42.6068623 56.9778892,42.6068623 C57.2392568,42.6068623 57.4330855,42.7855263 57.4330855,43.1001012 L57.4330855,47.8702227 C57.4330855,48.2443117 57.2138544,48.4738664 56.8768816,48.4738664 C56.5818046,48.4738664 56.3964033,48.3039474 56.211002,47.980749 L54.1123555,44.3755263 L54.0786462,44.3755263 L54.0786462,47.980749 C54.0786462,48.2953239 53.8848176,48.4738664 53.6235703,48.4738664 C53.3537753,48.4738664 53.1599466,48.2953239 53.1599466,47.980749 L53.1599466,43.2106275 Z" id="Fill-18" fill="#FFFFFF"></path>
                    <path d="M58.6968,45.5403887 C58.6968,44.6985668 58.7303889,44.3586073 58.8569193,43.9418866 C59.1518759,43.0320486 59.8850538,42.5559352 60.8880267,42.5559352 C61.7814443,42.5559352 62.4304692,42.9385263 62.7169985,43.4827773 C62.7675625,43.5761781 62.8012718,43.6698219 62.8012718,43.7803482 C62.8012718,44.0439109 62.5990158,44.2309555 62.3460755,44.2309555 C62.1775289,44.2309555 62.0426915,44.1629393 61.9078542,43.9758947 C61.6718889,43.6188097 61.3431026,43.4572713 60.8880267,43.4572713 C60.3065408,43.4572713 59.9693271,43.7463401 59.8177555,44.2224534 C59.7419095,44.4691336 59.7080798,44.7667045 59.7080798,45.5403887 C59.7080798,46.3141943 59.7419095,46.6117652 59.8177555,46.8584453 C59.9693271,47.3344372 60.3149681,47.6236275 60.896454,47.6236275 C61.4274963,47.6236275 61.8237013,47.3599433 61.9752729,46.8924534 C62.0426915,46.6882834 62.0680939,46.4077166 62.0680939,46.1526559 C62.0680939,46.1186478 62.0511189,46.1016437 62.0174095,46.1016437 L61.3600777,46.1016437 C61.090403,46.1016437 60.921736,45.9229798 60.921736,45.6764211 C60.921736,45.4298623 61.090403,45.2513198 61.3600777,45.2513198 L62.6495798,45.2513198 C62.9025202,45.2513198 63.0540918,45.4043563 63.0540918,45.659417 L63.0540918,45.8210769 C63.0540918,46.2886883 63.0120755,46.7733036 62.9025202,47.105004 C62.6074432,48.0232227 61.8825722,48.5249636 60.8880267,48.5249636 C59.8850538,48.5249636 59.1518759,48.0487287 58.8569193,47.1390121 C58.7303889,46.7222915 58.6968,46.3822105 58.6968,45.5403887" id="Fill-20" fill="#FFFFFF"></path>
                </g>
            </g>
        </g>
    </g>
</svg>