<?xml version="1.0" encoding="UTF-8"?>
<svg width="16px" height="17px" viewBox="0 0 16 17" version="1.1" xmlns="http://www.w3.org/2000/svg" xmlns:xlink="http://www.w3.org/1999/xlink">
    <title>Icon / Phone</title>
    <g id="Symbols" stroke="none" stroke-width="1" fill="none" fill-rule="evenodd">
        <g id="Header/Desktop" transform="translate(-974.000000, -17.000000)" fill="#26CAD3">
            <g id="Phone" transform="translate(974.000000, 1.000000)">
                <g id="Icon-/-Phone" transform="translate(0.000000, 16.000000)">
                    <path d="M3.20372566,11.6806739 C3.13699226,11.2266616 3.07025885,10.7726494 3.00352545,10.3193261 C2.94086115,9.89149365 3.7335238,9.89562729 3.79618809,10.3193261 C3.8629215,10.7726494 3.9296549,11.2266616 3.99638831,11.6806739 C4.05986643,12.1085064 3.26638996,12.1043727 3.20372566,11.6806739" id="Fill-1"></path>
                    <path d="M2.24423751,12.9358111 C1.87472689,12.7530812 1.50431502,12.5703514 1.1348044,12.3876215 C0.723836485,12.1846927 1.34569582,11.8615098 1.75576249,12.0644386 C2.12527311,12.2466987 2.49568498,12.4294286 2.8651956,12.6121585 C3.27616352,12.8150873 2.65430418,13.1382701 2.24423751,12.9358111" id="Fill-3"></path>
                    <path d="M1.63692542,13.988814 C1.16021874,13.8595512 0.684112454,13.7302885 0.208006163,13.6003983 C-0.156428287,13.5018825 -0.00212902258,12.9120427 0.3635062,13.011186 C0.839612491,13.1404488 1.31631917,13.2697115 1.79242546,13.3996017 C2.15625952,13.4981175 2.00196026,14.0879573 1.63692542,13.988814" id="Fill-5"></path>
                    <path d="M3.42835404,16 C3.07347776,15.7344203 2.89543609,15.512453 3.06442479,15.0177457 C3.27264302,14.4078238 4.02826394,13.0955477 4.99270662,12.1835939 C5.33430521,11.8607323 5.67167909,12.003937 6,12.3027142 C4.99512074,13.3962776 4.06326874,14.6297911 3.42835404,16" id="Fill-7"></path>
                    <path d="M11.9719221,1.62019976 C11.411427,2.42355131 10.9098519,3.1535198 10.634892,4 C10.4800382,3.93176661 10.3312275,3.85645241 10.2035676,3.75667717 C9.48293105,3.19342989 10.8267596,0.371400066 11.8767437,0.0508318971 C12.1773866,-0.0405750908 12.5747187,-0.00388355337 13,0.122283838 C12.6207971,0.60764207 12.327708,1.1103805 11.9719221,1.62019976" id="Fill-9"></path>
                    <path d="M6.44384444,12.973788 C6.9234,13.478348 7.38056667,13.963188 7.80306667,13.787748 C8.74773333,13.394708 11.7160667,8.544948 12.0959556,7.641228 C12.4151778,6.880988 12.6174,6.021468 12.3176778,5.254428 C12.1530111,4.831468 11.7630111,4.640388 11.3282333,4.480588 C11.5969,3.457188 12.2555667,2.649348 12.7950667,1.697348 C13.0456778,1.256708 13.2854556,0.847348 13.5794,0.443428 C14.3334,0.892908 15.0426222,1.580388 15.3387333,2.302548 C15.7525667,3.310988 15.4420111,4.443188 15.0874,5.471348 C14.3615667,7.575948 11.6330111,13.005068 10.0520667,14.641828 C8.47112222,16.278588 7.0729,17.230588 4.74228889,16.951788 C4.63106667,16.938868 4.02656667,16.749148 3.54556667,16.584588 C4.24684444,15.245668 5.31428889,14.041388 6.44384444,12.973788" id="Fill-11"></path>
                </g>
            </g>
        </g>
    </g>
</svg>